<svg xmlns="http://www.w3.org/2000/svg" width="32" height="32" viewBox="0 0 32 32" fill="none">
  <defs>
    <linearGradient id="spiralGradient" x1="0" y1="0" x2="32" y2="32">
      <stop offset="0%" stop-color="#16f2c2"/>
      <stop offset="100%" stop-color="#0a7561"/>
    </linearGradient>
  </defs>
  <path fill="url(#spiralGradient)" d="
    M16 0
    C24.8366 0 32 7.16344 32 16
    C32 24.8366 24.8366 32 16 32
    C7.16344 32 0 24.8366 0 16
    C0 7.16344 7.16344 0 16 0
    ZM16 8
    C20.4183 8 24 11.5817 24 16
    C24 20.4183 20.4183 24 16 24
    C11.5817 24 8 20.4183 8 16
    C8 11.5817 11.5817 8 16 8
    ZM16 14
    C17.1046 14 18 14.8954 18 16
    C18 17.1046 17.1046 18 16 18
    C14.8954 18 14 17.1046 14 16
    C14 14.8954 14.8954 14 16 14
    Z"
  />
</svg> 